<?xml version="1.0" standalone="no"?>
<!DOCTYPE svg PUBLIC "-//W3C//DTD SVG 20010904//EN"
 "http://www.w3.org/TR/2001/REC-SVG-20010904/DTD/svg10.dtd">
<svg version="1.0" xmlns="http://www.w3.org/2000/svg"
 width="1024.000000pt" height="1024.000000pt" viewBox="280 250 464 524"
 preserveAspectRatio="xMidYMid meet">
<metadata>
Created by potrace 1.16, written by Peter Selinger 2001-2019
</metadata>
<g transform="translate(0.000000,1024.000000) scale(0.100000,-0.100000)"
fill="#3593ff" stroke="none">
<path d="M5060 7766 c-3 -3 -23 -6 -44 -8 -20 -1 -40 -6 -43 -11 -2 -4 -11 -3
-19 4 -10 8 -14 8 -14 0 0 -6 -7 -11 -16 -11 -25 0 -184 -71 -184 -83 0 -6 -3
-8 -6 -4 -4 3 -13 0 -20 -8 -16 -15 -19 -65 -5 -65 5 0 7 -9 4 -20 -3 -11 -1
-20 4 -20 6 0 8 -11 5 -25 -2 -14 0 -25 4 -25 5 0 10 -19 11 -42 2 -23 8 -45
15 -50 11 -7 5 -12 -13 -10 -3 1 -6 -5 -6 -13 0 -8 3 -13 6 -11 13 8 26 -21
29 -61 1 -23 7 -55 13 -70 6 -16 13 -46 15 -67 3 -22 6 -49 9 -60 14 -63 27
-111 33 -120 3 -6 5 -24 3 -40 -1 -15 1 -26 6 -23 4 3 9 -16 11 -42 1 -25 6
-47 11 -49 5 -2 7 -12 4 -22 -3 -11 -1 -20 4 -20 6 0 8 -11 5 -25 -2 -15 0
-25 7 -25 8 0 9 -5 1 -19 -13 -25 -13 -31 3 -31 6 0 13 -12 13 -27 1 -16 4
-46 7 -68 3 -22 5 -44 6 -48 1 -5 5 -6 10 -3 4 3 6 -6 3 -19 -2 -14 0 -25 5
-25 6 0 8 -11 5 -25 -2 -14 0 -25 4 -25 8 0 14 -41 18 -117 1 -12 3 -21 6 -21
17 1 23 -3 13 -10 -7 -4 -10 -17 -6 -30 3 -12 9 -19 14 -16 5 3 6 -1 3 -9 -3
-8 -1 -18 5 -21 6 -4 6 -18 1 -37 -7 -23 -6 -30 4 -26 9 4 11 -4 8 -25 -3 -20
-1 -29 6 -24 6 4 8 -2 5 -14 -3 -12 0 -20 6 -20 7 0 10 -4 7 -8 -9 -15 16
-142 28 -142 6 0 6 -4 -2 -9 -10 -6 -4 -18 23 -47 19 -21 34 -32 33 -24 -2 8
4 15 12 15 31 2 50 18 50 42 0 13 3 22 8 19 4 -2 7 16 6 40 -1 24 3 44 8 44 6
0 8 11 6 25 -3 13 -1 26 4 27 5 2 10 23 11 46 1 23 5 42 8 42 8 0 20 55 19 90
0 16 3 20 8 13 4 -7 7 10 6 37 -1 28 3 50 9 50 5 0 7 11 5 25 -3 14 -1 25 5
25 5 0 7 11 5 25 -3 14 -1 25 4 25 5 0 8 8 7 18 -1 9 1 24 5 33 4 9 8 33 9 53
1 21 7 36 14 36 9 0 10 7 3 24 -5 15 -5 27 1 33 6 6 11 17 12 24 2 8 6 19 10
26 4 6 2 15 -4 19 -8 4 -8 8 0 13 6 4 12 28 13 54 2 26 6 47 11 47 4 0 7 11 7
24 0 14 4 27 8 30 5 3 8 23 8 46 -1 22 3 40 8 40 4 0 6 11 4 25 -3 14 -1 25 5
25 5 0 7 9 4 20 -3 11 -1 22 3 25 5 3 7 14 5 25 -2 11 1 20 7 20 6 0 8 11 6
25 -3 14 -2 28 2 30 5 3 14 38 21 78 7 39 20 89 30 110 9 20 13 35 9 32 -5 -3
-11 -1 -15 5 -3 5 -1 10 4 10 6 0 11 14 11 30 0 17 5 30 11 30 8 0 8 4 0 14
-9 11 -9 16 -1 21 7 4 10 16 7 26 -3 10 -1 22 5 25 5 3 8 15 5 25 -3 11 -1 19
5 19 17 0 0 62 -24 84 -12 11 -25 20 -28 19 -14 -6 -49 10 -43 20 3 5 2 7 -4
4 -10 -7 -124 29 -133 42 -3 3 -27 8 -55 9 -27 2 -79 6 -115 8 -36 3 -68 3
-70 0z"/>
<path d="M5751 7543 c-7 -7 -10 -17 -6 -22 3 -5 0 -11 -5 -13 -6 -2 -12 -20
-13 -41 -1 -24 -6 -36 -14 -33 -9 4 -10 -2 -2 -21 8 -21 7 -24 -5 -20 -12 5
-13 1 -6 -18 7 -17 6 -25 -1 -25 -6 0 -9 -6 -6 -14 3 -8 3 -16 -1 -18 -8 -3
-57 -192 -57 -219 -1 -9 -6 -23 -13 -31 -6 -8 -9 -18 -6 -21 3 -3 2 -11 -2
-18 -8 -14 -15 -48 -18 -86 0 -13 -5 -23 -10 -23 -4 0 -6 -9 -3 -20 3 -10 1
-20 -4 -22 -5 -2 -10 -19 -12 -38 -2 -19 -9 -36 -16 -38 -6 -2 -9 -8 -6 -13 4
-5 -1 -32 -9 -61 -30 -109 -37 -139 -31 -148 3 -6 2 -10 -4 -10 -5 0 -8 -9 -6
-21 3 -13 0 -19 -8 -16 -14 5 -17 -60 -4 -80 5 -9 3 -11 -6 -7 -18 6 -30 -30
-38 -113 -2 -18 -7 -33 -12 -33 -4 0 -8 -8 -7 -17 3 -27 -11 -64 -21 -57 -5 3
-4 -7 1 -22 8 -21 8 -25 -4 -21 -14 6 -16 -16 -3 -29 4 -4 3 -12 -2 -18 -13
-16 -44 -126 -37 -133 3 -4 1 -12 -5 -19 -6 -8 -9 -21 -5 -29 4 -10 2 -14 -6
-9 -7 5 -9 -1 -6 -20 3 -14 1 -26 -3 -26 -16 0 -9 -25 11 -37 13 -9 21 -9 26
-2 4 7 37 9 96 6 85 -5 92 -4 114 18 13 13 24 31 24 38 0 8 17 30 38 49 20 18
36 40 34 48 -1 8 10 29 25 45 16 17 29 33 30 35 10 31 30 67 41 73 10 7 11 12
1 23 -9 12 -9 13 3 9 10 -4 21 5 32 29 18 37 30 49 19 19 -3 -10 -3 -15 1 -11
4 3 9 12 10 20 4 22 29 68 36 68 4 0 20 24 35 53 16 28 36 57 44 64 9 7 13 13
9 13 -4 0 0 9 9 20 13 15 19 17 26 7 6 -8 7 -6 3 5 -6 19 21 78 42 91 7 5 10
12 7 18 -4 5 1 9 10 9 9 0 13 5 10 10 -3 6 -1 10 4 10 6 0 11 8 11 19 0 10 7
24 15 31 9 7 13 15 10 18 -2 3 5 15 18 27 28 27 71 111 63 123 -4 6 2 8 14 5
12 -3 20 -2 19 3 -4 22 2 35 14 28 6 -4 9 -4 5 1 -4 4 0 25 9 46 13 33 13 42
2 57 -13 15 -12 16 3 4 16 -13 17 -9 17 45 -1 32 -8 74 -16 93 -8 19 -16 44
-17 55 -1 11 -7 19 -14 17 -7 -1 -11 1 -11 5 3 18 -2 36 -7 30 -4 -4 -20 14
-35 39 -19 29 -35 44 -46 42 -12 -2 -18 4 -18 16 0 11 -6 21 -14 24 -9 3 -11
0 -6 -8 5 -8 4 -11 -2 -7 -5 3 -8 20 -7 36 1 17 -3 34 -9 38 -6 3 -7 1 -3 -5
11 -18 -10 -14 -28 4 -9 8 -16 12 -16 7 -1 -4 -8 6 -17 22 -9 17 -18 25 -20
18 -5 -13 -14 -8 -52 30 -10 10 -28 19 -39 20 -12 0 -19 3 -17 6 8 7 -72 40
-93 38 -10 0 -24 -7 -31 -14z"/>
<path d="M4421 7531 c-31 -9 -49 -20 -44 -25 4 -5 3 -6 -4 -2 -7 4 -25 0 -41
-8 -16 -8 -33 -12 -37 -8 -5 4 -5 1 -1 -5 4 -8 1 -13 -8 -13 -8 0 -20 -8 -25
-17 -6 -10 -11 -14 -11 -9 0 5 -7 2 -17 -5 -9 -8 -19 -14 -22 -14 -3 0 -5 -3
-4 -6 1 -4 -9 -10 -23 -13 -14 -4 -22 -11 -19 -16 6 -10 -7 -24 -53 -51 -18
-11 -30 -24 -27 -29 4 -6 -1 -17 -9 -26 -9 -8 -16 -12 -16 -7 0 4 -8 -7 -16
-24 -10 -19 -21 -30 -28 -26 -7 4 -7 2 1 -7 13 -14 6 -43 -9 -34 -6 4 -5 -3 1
-15 10 -18 9 -20 -5 -14 -11 4 -15 2 -11 -4 4 -6 0 -16 -7 -22 -17 -15 -20
-145 -3 -134 6 3 7 1 3 -5 -4 -7 -4 -18 1 -24 4 -7 8 -20 10 -28 1 -8 7 -16
13 -18 5 -2 8 -8 4 -13 -3 -5 1 -9 8 -9 9 0 9 -3 -2 -10 -13 -8 -12 -10 3 -10
10 0 15 -5 12 -10 -3 -6 1 -13 9 -16 9 -3 13 -10 10 -15 -3 -5 2 -12 10 -15 9
-3 13 -10 10 -15 -3 -5 -1 -9 3 -9 5 0 8 -13 7 -29 -2 -25 1 -28 20 -23 19 5
20 4 7 -12 -9 -11 -10 -16 -3 -14 7 2 22 -15 35 -37 12 -22 25 -41 30 -43 4
-2 7 -10 7 -18 0 -8 5 -14 11 -14 5 0 7 -4 4 -10 -3 -5 1 -10 10 -10 9 0 14
-4 11 -9 -5 -8 11 -33 54 -84 8 -10 15 -21 15 -25 0 -15 60 -100 67 -96 5 3 8
2 7 -3 -1 -4 2 -18 6 -31 6 -17 11 -20 20 -12 10 9 13 7 10 -7 -1 -10 6 -28
17 -40 11 -12 17 -26 13 -32 -3 -6 1 -11 10 -11 9 0 13 -5 10 -10 -3 -6 1 -13
9 -16 9 -3 13 -10 10 -15 -3 -5 2 -12 10 -15 9 -3 13 -10 10 -15 -3 -5 1 -12
10 -15 8 -3 13 -11 10 -19 -3 -7 2 -15 10 -18 9 -4 16 -13 16 -20 0 -8 9 -22
20 -32 12 -10 18 -25 15 -33 -4 -10 0 -12 10 -8 9 3 14 2 11 -2 -3 -5 6 -20
20 -35 13 -14 24 -32 24 -39 0 -8 14 -29 32 -48 17 -19 31 -37 31 -40 -1 -3 1
-7 4 -10 4 -3 3 1 -1 8 -4 6 -2 12 3 12 6 0 11 -6 11 -12 0 -10 2 -10 8 -1 5
8 34 11 87 9 44 -2 88 1 98 6 18 9 24 48 6 48 -5 0 -7 5 -4 10 3 6 3 16 -2 22
-4 7 -8 20 -8 28 -1 8 -5 34 -9 58 -8 37 -11 41 -25 30 -10 -8 -8 -4 4 10 15
19 17 25 6 31 -8 5 -10 14 -7 20 4 6 1 14 -8 17 -8 3 -12 12 -10 19 3 7 2 15
-3 18 -5 3 -8 22 -8 41 1 20 -2 36 -7 36 -4 0 -8 8 -8 18 0 10 -3 22 -7 25 -3
4 -8 22 -10 39 -11 89 -22 121 -40 114 -8 -3 -11 -1 -8 4 3 6 13 10 22 10 13
0 13 3 -3 18 -11 9 -18 26 -16 36 3 15 0 17 -14 12 -18 -6 -18 -5 -1 8 16 12
16 16 4 27 -8 7 -12 21 -9 31 2 10 0 18 -6 18 -6 0 -8 9 -5 20 3 11 1 20 -4
20 -5 0 -8 14 -7 30 1 17 -3 36 -9 43 -7 6 -13 23 -14 37 -2 25 -38 163 -50
190 -3 8 -5 24 -4 34 2 14 -1 17 -16 12 -17 -7 -17 -6 -1 10 16 16 16 18 0 30
-11 9 -13 13 -4 14 10 0 10 5 2 21 -7 11 -9 23 -6 26 3 4 2 11 -3 17 -15 19
-61 214 -55 233 4 13 3 15 -4 4 -6 -8 -12 -10 -16 -3 -4 6 1 15 10 20 16 9 15
10 -4 16 -13 4 -19 13 -15 21 3 8 9 12 14 9 5 -3 9 0 9 5 0 6 -8 11 -17 11
-14 0 -19 9 -21 37 -1 20 -10 44 -20 53 -17 16 -22 16 -71 1z"/>
<path d="M6190 7270 c0 -5 5 -10 11 -10 5 0 7 5 4 10 -3 6 -8 10 -11 10 -2 0
-4 -4 -4 -10z"/>
<path d="M4711 6774 c0 -11 3 -14 6 -6 3 7 2 16 -1 19 -3 4 -6 -2 -5 -13z"/>
<path d="M4613 5721 c-12 -10 -20 -21 -18 -23 3 -3 6 -68 6 -146 2 -134 14
-212 32 -212 5 0 6 -4 3 -9 -4 -5 -1 -22 6 -38 6 -15 11 -31 10 -35 -1 -5 2
-8 8 -8 6 0 10 -7 10 -15 0 -8 5 -15 11 -15 5 0 7 -4 4 -10 -3 -5 1 -10 10
-10 16 0 47 -58 39 -72 -2 -3 4 -5 13 -4 10 2 28 -10 41 -27 12 -17 22 -27 22
-21 1 5 7 -2 14 -15 8 -15 16 -20 20 -12 5 7 14 4 28 -9 20 -18 39 -25 61 -21
4 0 7 -3 7 -9 0 -5 7 -10 16 -10 8 0 12 -5 8 -11 -4 -7 1 -7 16 1 19 10 22 10
17 -2 -3 -10 3 -15 21 -16 15 -1 43 -2 62 -3 19 -2 57 -2 84 -1 42 2 47 4 36
17 -11 13 -8 13 23 0 33 -14 36 -14 30 2 -4 11 -3 14 5 9 6 -4 28 0 48 9 20 8
40 12 45 9 5 -3 6 2 3 11 -4 9 -3 15 2 14 25 -4 44 3 44 17 0 14 2 15 17 3 11
-10 14 -10 9 -1 -4 7 -2 12 5 12 8 0 7 5 -2 17 -10 12 -10 15 -1 9 8 -5 28 8
57 38 25 25 45 48 45 51 0 3 11 18 25 33 14 15 25 33 25 40 0 7 4 11 9 8 4 -3
7 6 5 19 -1 14 2 23 7 19 5 -3 10 3 11 13 3 38 5 49 12 65 4 9 5 22 1 28 -3 5
-1 10 4 10 12 0 16 265 5 294 -3 8 -11 13 -18 10 -7 -3 -24 0 -38 5 -14 5 -29
7 -33 3 -9 -9 -914 -9 -908 1 7 11 0 8 -24 -12z"/>
<path d="M3533 4373 c-3 -7 -9 -11 -13 -8 -10 6 -76 -55 -72 -67 1 -4 -3 -8
-9 -8 -8 0 -7 -5 1 -15 11 -13 10 -14 -4 -9 -13 5 -16 -1 -16 -35 0 -23 5 -41
11 -41 5 0 7 -4 4 -10 -3 -5 -1 -10 5 -10 6 0 9 -4 6 -9 -3 -5 1 -14 10 -21
12 -11 12 -15 2 -22 -10 -7 -10 -8 2 -6 23 3 60 -12 60 -25 0 -7 4 -6 10 3 8
12 10 12 10 1 0 -11 11 -12 47 -7 26 3 49 10 52 15 4 5 24 24 46 43 40 34 54
58 34 58 -8 0 -8 4 -2 13 16 20 23 47 11 44 -9 -2 -17 17 -20 50 -1 6 -12 16
-25 22 -12 6 -23 17 -23 25 0 9 -7 13 -20 11 -11 -2 -20 0 -20 5 0 14 -82 17
-87 3z"/>
<path d="M7318 4383 c-10 -2 -18 -9 -18 -15 0 -6 -3 -9 -6 -6 -9 9 -56 -40
-49 -51 4 -7 0 -8 -11 -4 -12 4 -15 3 -10 -5 4 -7 2 -12 -4 -12 -6 0 -9 -4 -5
-9 3 -5 1 -12 -5 -16 -13 -8 -13 -52 0 -60 5 -3 6 -13 3 -23 -3 -9 -3 -14 2
-10 4 4 23 -14 41 -40 19 -26 34 -43 34 -39 0 4 9 3 20 -3 13 -7 20 -7 20 -1
0 7 9 7 24 1 17 -6 26 -5 29 3 3 9 8 8 21 -2 9 -8 19 -11 23 -7 3 3 1 6 -5 6
-7 0 -12 4 -12 10 0 5 6 7 13 4 18 -6 61 41 54 60 -4 11 -1 13 10 9 10 -4 14
-2 9 5 -3 6 -2 13 4 17 13 8 13 56 0 91 -11 28 -80 111 -80 96 0 -4 -9 -8 -20
-8 -11 0 -20 4 -20 8 0 8 -33 9 -62 1z"/>
<path d="M3014 4297 c-5 -12 -16 -21 -23 -19 -7 1 -10 -1 -7 -6 7 -11 -33 -93
-54 -109 -8 -7 -11 -13 -6 -13 6 0 2 -6 -7 -12 -9 -7 -17 -19 -19 -27 -2 -8
-11 -23 -21 -33 -10 -10 -15 -23 -12 -27 2 -5 -2 -12 -11 -15 -8 -3 -12 -10
-9 -16 3 -5 1 -10 -4 -10 -6 0 -11 -6 -11 -14 0 -8 -7 -16 -15 -20 -8 -3 -15
-12 -15 -21 0 -19 -36 -56 -46 -47 -4 4 -4 1 0 -6 5 -8 -1 -23 -14 -37 -12
-13 -19 -28 -16 -33 3 -6 -1 -13 -10 -16 -9 -4 -14 -9 -11 -12 9 -9 -23 -38
-44 -41 -11 -2 -18 0 -18 5 3 20 -2 32 -12 26 -7 -4 -10 -1 -7 7 3 8 -1 20 -9
27 -7 8 -11 17 -8 22 3 5 -4 11 -14 15 -11 3 -18 12 -15 19 3 7 -4 20 -15 30
-17 15 -18 22 -9 40 10 19 9 20 -5 8 -14 -12 -18 -9 -32 17 -8 17 -20 31 -25
31 -6 0 -9 3 -9 8 5 30 -2 44 -22 39 -16 -4 -18 -3 -8 9 9 11 8 15 -5 20 -9 3
-14 9 -11 14 2 4 -5 17 -16 28 -11 12 -17 22 -13 22 3 0 1 7 -6 15 -6 8 -9 18
-6 23 3 6 -5 17 -19 26 -14 9 -25 22 -25 29 0 7 -12 25 -27 39 -27 25 -33 27
-128 26 -55 -1 -106 -5 -112 -11 -16 -12 -19 -1063 -3 -1087 7 -11 35 -16 120
-18 99 -3 113 -2 125 15 12 14 14 73 15 288 l0 271 26 2 c14 1 23 -2 19 -8 -3
-6 0 -13 7 -15 8 -3 13 -18 12 -35 -1 -21 2 -27 12 -23 8 3 17 -5 23 -20 6
-14 18 -30 28 -36 10 -6 14 -11 10 -11 -4 0 -3 -9 3 -21 7 -13 17 -18 27 -15
13 5 14 4 4 -8 -10 -12 -8 -20 12 -40 14 -14 30 -41 37 -61 6 -19 18 -35 26
-35 9 0 13 -4 10 -9 -3 -5 5 -20 18 -34 13 -14 23 -27 21 -29 -2 -2 10 -4 26
-5 20 -2 27 1 23 9 -5 8 -1 9 10 5 13 -5 19 -1 23 13 3 11 9 20 14 20 5 0 9 9
9 19 0 10 7 22 16 25 8 3 12 10 9 16 -3 5 -2 10 4 10 5 0 11 -3 14 -7 2 -5 3
-3 1 2 -1 6 4 19 12 29 7 11 11 23 8 27 -3 5 0 9 5 9 6 0 10 4 9 9 -2 5 9 20
24 34 15 14 29 32 30 39 2 7 15 32 31 55 15 23 27 47 27 54 0 7 3 9 7 6 7 -8
38 52 34 66 -1 5 4 7 11 5 10 -4 14 -71 16 -299 2 -260 5 -295 19 -306 11 -8
50 -13 107 -13 145 0 132 -18 128 186 -1 107 1 181 8 193 7 13 7 22 0 26 -13
8 -13 55 0 55 6 0 10 5 10 11 0 5 -4 8 -9 5 -12 -8 -13 202 -1 225 8 13 7 19
0 19 -7 0 -10 40 -8 119 2 77 6 117 13 113 5 -3 5 1 -2 9 -13 16 -12 56 2 78
5 10 4 12 -3 7 -7 -4 -12 -3 -12 2 0 6 7 13 15 16 14 5 13 10 -6 36 -13 17
-32 30 -43 30 -17 0 -18 -2 -6 -10 13 -8 12 -10 -2 -10 -10 0 -18 4 -18 9 0 4
-17 5 -38 1 -44 -8 -78 -7 -107 3 -15 5 -23 1 -31 -16z m-660 -489 c-5 -8 -2
-9 10 -5 14 5 15 3 6 -13 -6 -11 -16 -17 -25 -14 -11 5 -12 11 -4 25 5 10 12
19 15 19 3 0 2 -5 -2 -12z m-37 -185 c-3 -10 -5 -4 -5 12 0 17 2 24 5 18 2 -7
2 -21 0 -30z"/>
<path d="M2995 4300 c-3 -5 -1 -10 4 -10 6 0 11 5 11 10 0 6 -2 10 -4 10 -3 0
-8 -4 -11 -10z"/>
<path d="M2365 4230 c3 -5 11 -10 16 -10 6 0 7 5 4 10 -3 6 -11 10 -16 10 -6
0 -7 -4 -4 -10z"/>
<path d="M5033 4214 c5 -8 -17 -10 -74 -8 -66 3 -80 1 -75 -11 3 -9 0 -12 -10
-8 -11 4 -14 -10 -14 -81 l0 -86 -56 0 c-82 0 -90 -12 -86 -128 2 -98 11 -120
48 -119 10 0 36 -1 57 -2 l37 -1 0 -191 c0 -104 3 -188 8 -186 4 3 8 -6 9 -20
0 -14 6 -29 13 -33 9 -6 9 -9 -1 -13 -9 -4 -7 -6 5 -6 11 -1 17 -4 13 -7 -5
-5 10 -27 41 -59 6 -8 12 -18 12 -24 0 -6 6 -10 13 -8 6 1 11 -4 9 -11 -1 -8
2 -11 8 -7 5 3 29 0 52 -8 50 -17 187 -20 239 -6 l37 9 -1 98 c0 67 -4 105
-13 117 -8 10 -17 16 -20 12 -4 -4 -13 -2 -21 4 -10 9 -13 8 -13 -1 0 -10 -3
-10 -16 0 -8 8 -14 9 -12 4 2 -5 -1 -9 -7 -9 -5 0 -9 3 -8 7 3 8 -24 4 -33 -5
-8 -7 -34 17 -34 32 0 6 -3 11 -7 11 -5 0 -8 67 -8 150 l0 150 81 0 c106 0
111 6 115 126 4 119 -1 124 -110 124 l-81 0 0 84 c0 90 -9 110 -48 99 -12 -3
-30 1 -39 8 -9 8 -14 9 -10 3z m-146 -166 c-2 -24 -4 -7 -4 37 0 44 2 63 4 43
2 -21 2 -57 0 -80z m340 -254 c-3 -3 -12 -4 -19 -1 -8 3 -5 6 6 6 11 1 17 -2
13 -5z m50 0 c-3 -3 -12 -4 -19 -1 -8 3 -5 6 6 6 11 1 17 -2 13 -5z"/>
<path d="M4284 4053 c4 -8 1 -13 -8 -13 -9 0 -16 -4 -16 -10 0 -5 -5 -10 -11
-10 -5 0 -8 4 -5 9 11 18 -80 -21 -105 -46 -17 -16 -29 -21 -33 -14 -4 6 -5
11 -1 11 3 0 1 9 -5 20 -10 18 -21 20 -120 20 -67 0 -110 -4 -110 -10 0 -5 -7
-10 -16 -10 -13 0 -14 -3 -5 -13 14 -17 10 -349 -4 -359 -6 -5 -5 -8 3 -8 10
0 10 -5 2 -20 -6 -11 -7 -20 -3 -20 4 0 8 -80 8 -178 -1 -97 3 -185 7 -194 8
-16 23 -18 113 -18 80 0 107 3 119 15 13 14 15 50 15 238 -1 265 -1 250 11
242 6 -4 10 -3 9 2 -4 21 2 44 9 39 5 -3 8 8 7 24 -1 22 1 27 10 20 7 -6 15
-6 22 1 9 9 76 15 96 9 4 -1 10 -3 15 -4 93 -22 92 -20 95 -298 1 -175 6 -249
15 -265 12 -22 19 -23 122 -23 99 0 110 2 120 20 12 22 13 537 2 544 -4 2 -7
21 -7 42 0 26 -7 46 -23 63 -13 14 -20 31 -17 40 3 8 3 12 -1 9 -3 -4 -24 13
-45 38 -21 25 -39 40 -39 33 0 -8 -4 -7 -12 3 -7 9 -22 18 -33 20 -11 2 -23 7
-27 12 -4 6 -12 5 -21 -2 -12 -10 -15 -10 -13 4 1 11 -8 17 -32 19 -18 1 -40
9 -49 16 -12 10 -14 10 -9 2 4 -7 3 -13 -1 -13 -5 0 -15 6 -22 13 -11 10 -13
10 -7 0z"/>
<path d="M5830 4039 c-8 -5 -39 -6 -67 -3 -35 4 -53 3 -53 -5 0 -5 -7 -8 -15
-5 -18 7 -105 -25 -105 -39 0 -7 -5 -6 -12 1 -10 10 -25 -1 -71 -50 -32 -35
-55 -57 -51 -49 5 9 3 12 -4 7 -7 -4 -12 -12 -12 -17 0 -5 -11 -27 -25 -49
-14 -22 -24 -45 -23 -52 2 -7 -2 -12 -7 -11 -6 1 -10 -10 -10 -25 1 -15 -2
-31 -6 -37 -4 -5 -6 -57 -4 -115 3 -135 3 -133 18 -124 8 5 8 2 -2 -9 -12 -15
-11 -17 3 -17 11 0 14 -5 10 -12 -5 -8 -1 -9 12 -5 18 7 18 6 -1 -9 -20 -16
-20 -16 3 -11 18 4 21 2 13 -7 -7 -9 -6 -18 4 -32 21 -30 72 -84 80 -84 4 0
14 -9 23 -20 10 -10 24 -20 32 -22 8 -2 19 -9 25 -16 5 -7 19 -14 30 -16 11
-2 33 -9 49 -15 16 -6 38 -9 49 -5 13 4 17 2 13 -5 -5 -8 14 -11 63 -11 39 0
71 3 71 8 0 4 17 7 37 8 20 0 39 6 41 12 2 6 9 9 17 6 11 -5 69 27 85 47 3 3
13 5 23 3 9 -1 15 1 13 5 -3 3 5 18 16 31 11 14 16 18 12 10 -6 -12 -5 -13 8
-3 8 7 18 10 21 7 4 -4 5 3 2 15 -2 11 0 21 6 21 12 0 49 61 43 72 -3 4 -1 8
5 8 14 0 44 105 36 129 -3 11 -1 22 4 26 11 6 11 55 1 55 -3 0 -5 25 -5 55 1
40 -4 61 -16 74 -10 10 -16 21 -13 24 7 6 -18 57 -28 57 -4 0 -8 6 -8 13 0 7
-9 20 -20 30 -12 10 -19 21 -16 26 3 4 -5 7 -19 6 -17 -2 -22 1 -18 11 3 8 0
14 -7 14 -6 0 -8 5 -5 10 3 6 0 10 -8 10 -8 0 -20 7 -27 15 -7 9 -19 14 -27
11 -7 -3 -13 -2 -13 3 0 11 -67 38 -111 46 -18 3 -35 8 -39 10 -3 2 -12 -1
-20 -6z m-260 -59 c0 -5 -5 -10 -11 -10 -5 0 -7 5 -4 10 3 6 8 10 11 10 2 0 4
-4 4 -10z m270 -199 c9 -9 15 -10 18 -3 2 7 12 4 24 -8 12 -11 24 -17 28 -15
9 5 57 -98 64 -138 3 -15 1 -25 -4 -22 -13 8 -19 -18 -9 -37 7 -12 4 -20 -7
-26 -10 -6 -15 -16 -11 -25 5 -14 -17 -32 -35 -29 -5 1 -7 -3 -5 -10 4 -19
-51 -40 -109 -42 -30 0 -54 2 -54 6 0 7 -44 23 -47 17 -2 -2 -10 6 -18 19 -9
12 -14 26 -11 31 3 5 -1 11 -9 15 -8 3 -15 12 -15 21 0 8 -6 15 -12 16 -8 0
-9 2 -2 5 6 3 8 25 4 59 -3 30 -2 55 2 55 4 0 8 7 8 15 0 9 7 18 15 21 14 6
13 8 -2 21 -10 8 -12 11 -4 7 8 -4 19 -1 25 8 17 23 55 40 76 33 14 -4 18 -2
15 7 -7 18 55 18 75 -1z"/>
<path d="M6750 4039 c-30 -4 -56 -12 -58 -18 -2 -5 -11 -7 -19 -4 -12 5 -15 2
-11 -9 5 -11 0 -14 -18 -12 -13 1 -24 -2 -24 -7 0 -6 -5 -7 -10 -4 -6 4 -18 1
-27 -7 -12 -9 -15 -10 -9 0 4 7 1 19 -8 27 -22 22 -208 21 -230 -1 -14 -13
-16 -63 -16 -389 0 -219 4 -384 10 -399 9 -26 11 -26 117 -26 99 0 109 2 121
21 11 17 13 73 11 243 -1 149 2 230 10 250 11 27 51 85 51 73 0 -3 14 -1 32 4
37 10 110 1 102 -13 -3 -5 2 -8 12 -6 11 2 18 -2 17 -9 -2 -7 0 -12 5 -12 4 1
14 1 22 0 13 -1 13 -2 0 -11 -11 -7 -11 -10 -2 -10 7 0 12 -8 10 -17 -1 -10 2
-24 6 -32 5 -8 9 -111 8 -230 -1 -184 2 -218 15 -233 13 -15 33 -18 119 -18
122 0 130 6 119 96 -4 35 -2 54 5 54 5 0 10 5 10 11 0 5 -3 8 -7 6 -13 -8 -12
277 1 285 7 5 6 8 -3 8 -11 0 -11 3 0 17 10 11 10 14 2 9 -15 -9 -17 21 -4 56
6 17 4 34 -10 62 -10 21 -16 42 -14 46 3 4 -4 19 -15 33 -11 14 -20 30 -20 36
0 6 -5 10 -12 9 -7 -2 -12 4 -13 12 0 8 -5 15 -12 15 -20 0 -28 16 -13 26 13
9 12 10 -2 5 -10 -3 -20 -1 -23 5 -4 5 -11 7 -16 4 -5 -3 -6 0 -3 8 6 16 -25
19 -44 4 -9 -7 -11 -5 -5 8 5 14 3 17 -10 12 -10 -4 -17 -2 -17 4 0 6 -9 9
-20 6 -11 -3 -20 0 -20 6 0 6 -3 7 -7 4 -3 -4 -11 -3 -17 1 -6 5 -36 5 -66 1z"/>
<path d="M3455 4007 c-12 -15 -15 -797 -2 -797 4 0 6 -4 3 -9 -3 -5 46 -9 110
-10 100 -2 116 0 111 13 -4 10 -1 13 9 9 12 -4 14 48 14 383 -1 308 -3 393
-14 407 -11 14 -30 17 -117 17 -69 -1 -107 -5 -114 -13z"/>
<path d="M7246 4001 c-15 -17 -17 -48 -15 -302 0 -156 1 -297 0 -314 -4 -139
-1 -170 16 -182 20 -15 200 -18 222 -4 12 8 14 72 12 381 -1 205 2 370 6 367
16 -10 8 39 -9 56 -13 14 -36 17 -116 17 -84 0 -101 -3 -116 -19z"/>
<path d="M7563 4008 c-23 -30 -27 -41 -10 -35 12 4 14 2 10 -10 -4 -10 -2 -14
4 -10 6 4 13 0 16 -7 3 -8 1 -17 -6 -20 -7 -2 -2 -5 9 -5 20 -1 34 -18 90
-106 10 -16 18 -33 16 -37 -1 -4 10 -16 25 -27 14 -12 22 -21 18 -21 -4 0 -2
-7 5 -15 7 -9 18 -14 25 -11 6 2 12 -2 12 -10 0 -7 -5 -10 -10 -7 -6 4 -7 1
-1 -8 4 -8 9 -20 10 -27 2 -8 6 -17 10 -20 4 -4 4 2 1 13 -7 20 -7 20 8 1 18
-23 20 -46 4 -46 -6 0 -8 -7 -5 -16 3 -8 2 -12 -4 -9 -6 3 -10 -1 -10 -9 0 -8
-10 -24 -22 -36 -12 -11 -18 -20 -14 -20 4 0 1 -6 -6 -14 -29 -30 -55 -63 -83
-108 -16 -26 -33 -44 -37 -42 -4 3 -11 -8 -14 -23 -4 -15 -14 -33 -23 -40 -9
-7 -12 -13 -6 -13 5 0 -2 -8 -15 -17 -14 -10 -29 -17 -33 -15 -5 1 0 -9 10
-22 17 -25 22 -25 135 -26 64 0 119 4 123 10 3 5 11 8 18 6 7 -1 9 -1 5 1 -13
8 -9 23 5 17 8 -3 13 4 14 18 1 13 7 24 13 26 5 2 10 10 10 17 0 7 7 15 15 19
8 3 14 11 13 18 -2 7 5 12 14 12 10 -1 14 4 11 12 -3 8 1 14 8 14 7 0 9 3 6 6
-10 11 12 44 29 44 11 0 14 5 9 18 -5 14 -4 15 7 4 7 -7 13 -16 13 -20 1 -16
39 -71 47 -66 4 3 8 -2 8 -12 0 -9 8 -23 18 -31 11 -10 12 -12 2 -8 -8 4 -6
-1 5 -10 11 -9 20 -19 20 -23 0 -4 15 -22 33 -40 l33 -32 124 0 125 0 0 30 c0
17 -9 39 -20 50 -11 11 -20 24 -20 30 0 5 -13 23 -29 39 -16 17 -32 39 -36 50
-3 12 -11 21 -17 21 -6 0 -9 2 -6 5 3 3 -8 19 -24 35 -16 17 -27 34 -24 39 4
5 -3 12 -14 16 -11 3 -20 13 -20 21 0 8 -7 17 -15 20 -8 4 -15 17 -15 29 0 13
-5 27 -12 31 -7 4 -8 3 -4 -4 4 -7 5 -12 1 -12 -3 0 -9 10 -14 23 -7 17 -2 28
21 52 17 18 27 37 24 47 -2 10 0 15 5 12 5 -3 12 2 15 10 3 9 10 14 14 11 8
-5 19 13 16 27 0 4 9 15 22 24 19 13 21 18 10 32 -9 11 -9 13 -1 9 7 -5 16 1
23 13 6 11 16 20 23 19 9 0 9 -2 0 -6 -7 -2 -13 -9 -13 -15 0 -6 6 -6 15 2 8
7 15 21 15 31 0 10 5 21 10 24 6 4 7 11 4 17 -4 7 -2 8 4 4 7 -4 12 -3 12 2 0
6 11 20 24 33 23 22 24 25 9 41 -14 15 -34 18 -130 18 -108 0 -114 -1 -143
-27 -23 -20 -27 -29 -19 -40 9 -11 8 -12 -5 -7 -9 3 -16 1 -16 -5 0 -7 -12
-23 -26 -36 -15 -14 -23 -25 -18 -25 5 0 1 -5 -9 -11 -15 -9 -16 -13 -5 -27 7
-9 8 -14 3 -9 -4 4 -18 -2 -31 -14 l-22 -20 -21 34 c-11 19 -21 39 -21 46 0 6
-4 11 -10 11 -5 0 -10 7 -10 15 0 8 -7 15 -16 15 -8 0 -12 5 -9 11 4 6 -2 17
-14 25 -12 8 -21 22 -21 30 0 8 -7 14 -15 14 -8 0 -15 5 -15 10 0 15 -235 13
-247 -2z"/>
<path d="M4547 3969 c4 -13 8 -18 11 -10 2 7 -1 18 -6 23 -8 8 -9 4 -5 -13z"/>
<path d="M6605 3719 c-4 -6 -5 -12 -2 -15 2 -3 7 2 10 11 7 17 1 20 -8 4z"/>
</g>
</svg>
