<?xml version="1.0" standalone="no"?>
<!DOCTYPE svg PUBLIC "-//W3C//DTD SVG 20010904//EN"
 "http://www.w3.org/TR/2001/REC-SVG-20010904/DTD/svg10.dtd">
<svg version="1.0" xmlns="http://www.w3.org/2000/svg"
 width="1024.000000pt" height="1024.000000pt" viewBox="320 300 384 424"
 preserveAspectRatio="xMidYMid meet">
<metadata>
Created by potrace 1.16, written by Peter Selinger 2001-2019
</metadata>
<g transform="translate(0.000000,1024.000000) scale(0.100000,-0.100000)"
fill="#2c89ff" stroke="none">
<path d="M4926 7348 c3 -5 10 -6 15 -3 13 9 11 12 -6 12 -8 0 -12 -4 -9 -9z"/>
<path d="M5040 7353 c-14 -2 -32 -7 -40 -10 -15 -6 -30 -8 -84 -11 -21 -2 -27
-6 -22 -18 4 -10 2 -13 -7 -7 -6 4 -29 8 -49 8 -35 0 -36 -1 -20 -20 9 -11 10
-14 2 -7 -20 17 -33 15 -26 -4 6 -15 4 -15 -10 -3 -14 11 -18 11 -21 1 -3 -6
-10 -9 -16 -5 -7 4 -8 0 -3 -12 5 -13 3 -15 -6 -8 -22 17 -47 23 -42 10 4 -11
-47 -53 -63 -51 -5 0 -14 -6 -21 -13 -7 -7 -22 -13 -32 -13 -11 0 -23 -8 -29
-17 -5 -10 -11 -17 -13 -15 -9 9 -36 -12 -31 -24 3 -8 1 -14 -5 -14 -13 0 -8
-96 7 -113 6 -8 8 -17 5 -20 -4 -3 -3 -14 1 -24 5 -10 7 -26 6 -35 -1 -10 2
-18 8 -18 6 0 8 -6 5 -14 -3 -8 -1 -17 4 -20 6 -3 8 -16 4 -28 -4 -18 -2 -20
14 -14 15 6 17 5 7 -5 -19 -19 -16 -42 3 -35 13 5 14 4 6 -7 -12 -15 -5 -87 9
-87 5 0 6 -7 3 -15 -3 -8 -2 -20 2 -27 5 -7 9 -16 10 -20 1 -5 3 -11 4 -15 1
-5 3 -15 4 -23 6 -55 20 -110 27 -110 5 0 6 -6 3 -14 -3 -8 -1 -17 5 -20 6 -4
8 -12 5 -19 -2 -7 2 -31 10 -54 8 -23 12 -44 9 -47 -4 -3 -1 -6 6 -6 7 0 10
-4 7 -9 -7 -11 18 -114 26 -106 3 3 3 -6 1 -20 -3 -14 -1 -25 4 -25 5 0 9 -8
10 -17 2 -39 36 -183 43 -183 5 0 6 -9 3 -20 -3 -11 -1 -20 4 -20 5 0 10 -8
10 -17 -1 -51 4 -84 11 -80 4 3 8 -11 9 -30 1 -20 6 -40 12 -46 5 -5 7 -15 5
-22 -3 -7 -1 -16 5 -20 6 -3 11 -11 11 -16 0 -6 -4 -7 -10 -4 -6 3 -7 -1 -4
-10 4 -9 13 -14 22 -10 12 4 13 3 3 -9 -7 -8 -9 -20 -5 -27 6 -11 8 -22 12
-87 1 -13 5 -21 10 -19 4 3 7 -9 8 -27 0 -18 4 -41 9 -52 4 -10 7 -30 6 -43
-2 -13 1 -21 6 -18 5 3 9 -13 9 -36 0 -22 5 -42 11 -44 6 -2 9 -13 6 -23 -3
-12 0 -20 6 -20 7 0 9 -5 6 -10 -8 -12 15 -120 25 -120 4 0 7 -8 7 -17 -2 -37
15 -113 24 -113 6 0 8 -4 5 -8 -8 -13 26 -172 37 -172 5 0 4 -6 -2 -14 -8 -10
-9 -16 -1 -21 5 -3 10 -17 10 -31 0 -13 5 -24 11 -24 5 0 7 -5 4 -10 -4 -6 -2
-17 5 -25 8 -10 8 -19 0 -35 -8 -15 -8 -20 2 -18 6 2 12 -3 13 -10 0 -15 26
-33 37 -26 4 3 16 -1 26 -7 15 -9 24 -8 45 6 25 16 31 35 30 83 -1 6 4 12 9
12 6 0 8 11 6 25 -3 13 -1 22 4 19 4 -3 7 7 6 23 -1 16 2 34 6 41 4 7 2 20 -5
28 -10 12 -10 15 2 12 8 -2 14 4 15 12 0 8 6 33 12 54 6 22 9 43 6 48 -3 4 0
8 5 8 6 0 11 10 11 23 -1 26 5 56 13 77 16 40 27 102 21 113 -5 6 1 5 11 -3
17 -14 18 -13 9 5 -11 24 -11 45 -1 63 5 6 6 16 3 21 -4 5 -1 11 5 13 6 2 12
21 15 43 2 22 5 49 7 60 1 11 6 23 10 26 4 3 9 28 11 55 3 27 5 51 7 54 1 3 3
10 4 15 1 6 5 18 10 28 4 10 2 23 -5 32 -11 13 -10 14 5 9 15 -6 17 -3 13 14
-4 12 -2 25 4 28 5 3 7 12 4 20 -3 7 0 16 5 20 6 3 9 15 6 25 -3 11 -1 19 5
19 6 0 8 9 5 20 -3 11 -1 23 5 26 5 3 7 12 4 20 -3 8 -1 14 5 14 7 0 9 10 5
25 -4 15 -2 25 4 25 6 0 10 8 8 18 -1 9 1 23 6 30 8 13 17 60 20 100 0 12 4
22 9 22 4 0 7 7 7 15 0 9 11 61 25 117 19 77 22 104 14 115 -9 11 -8 12 5 7
19 -7 20 -1 5 29 -9 18 -9 20 2 10 18 -18 25 -16 25 7 0 11 -5 20 -11 20 -5 0
-4 4 3 9 7 4 14 24 15 44 1 20 6 37 11 37 4 0 6 9 3 20 -3 11 -1 18 4 14 5 -3
10 10 11 28 3 57 4 63 11 75 4 7 8 28 9 48 1 19 4 35 8 35 13 0 30 112 19 131
-7 15 -7 19 3 17 7 -2 12 5 12 15 -1 9 3 17 8 17 5 0 8 8 7 18 -1 9 1 24 4 32
13 30 26 104 20 114 -4 5 1 7 11 3 14 -5 15 -3 6 13 -12 23 -13 33 -1 26 5 -3
9 12 9 34 1 23 -3 38 -9 35 -5 -4 -9 1 -9 10 0 9 -4 14 -9 10 -6 -3 -13 0 -18
7 -11 18 -52 40 -63 33 -5 -3 -12 0 -16 6 -4 8 -3 9 4 5 7 -4 12 -5 12 -2 0
11 -61 37 -72 30 -7 -5 -8 -3 -3 6 6 10 4 12 -9 7 -9 -4 -15 -3 -11 2 3 5 -16
17 -42 27 -27 10 -53 21 -58 25 -6 4 -22 9 -35 11 -14 2 -31 7 -37 11 -7 5
-13 5 -13 1 0 -3 -7 -1 -15 6 -8 7 -35 13 -59 14 -25 1 -50 7 -58 13 -8 6 -21
7 -33 2 -29 -11 -77 -11 -70 1 3 6 1 10 -4 10 -6 0 -11 -4 -11 -10 0 -5 -14
-10 -31 -10 -17 0 -28 4 -24 10 3 6 5 9 3 9 -2 -1 -14 -4 -28 -6z"/>
<path d="M4645 7260 c-3 -6 1 -7 9 -4 18 7 21 14 7 14 -6 0 -13 -4 -16 -10z"/>
<path d="M4080 7061 c0 -5 -9 -7 -20 -4 -11 3 -20 1 -20 -4 0 -5 -9 -10 -20
-11 -11 -1 -29 -3 -40 -4 -11 -1 -20 -8 -20 -16 0 -7 -5 -10 -12 -6 -6 4 -17
-1 -25 -12 -8 -10 -17 -18 -21 -17 -13 5 -42 -8 -42 -19 0 -6 -3 -8 -7 -5 -3
4 -12 2 -19 -4 -8 -6 -20 -9 -28 -6 -20 8 -28 -4 -14 -20 6 -8 7 -13 2 -12
-21 4 -34 -2 -31 -13 1 -7 -4 -12 -11 -13 -7 0 -17 -6 -21 -14 -5 -8 -17 -11
-32 -7 -13 3 -18 3 -11 0 14 -7 16 -30 2 -39 -6 -3 -8 2 -5 12 3 10 -2 3 -10
-14 -8 -18 -18 -33 -23 -33 -15 0 -62 -52 -56 -62 4 -6 3 -9 -2 -6 -9 6 -28
-9 -33 -27 -14 -43 -22 -55 -33 -49 -7 4 -10 4 -6 0 4 -5 -2 -24 -12 -44 -11
-19 -17 -39 -14 -44 3 -4 0 -8 -5 -8 -6 0 -10 -3 -9 -7 1 -5 -3 -18 -10 -30
-7 -13 -10 -23 -6 -23 3 0 1 -7 -6 -15 -6 -8 -9 -19 -5 -25 3 -5 2 -10 -2 -10
-13 0 -18 -44 -18 -161 0 -79 4 -111 15 -124 12 -15 12 -17 1 -10 -9 5 -12 4
-8 -2 6 -10 29 -63 32 -73 10 -40 29 -79 36 -75 5 4 9 -1 9 -9 0 -9 5 -16 11
-16 6 0 9 -7 5 -15 -3 -9 0 -15 10 -15 8 0 13 -4 10 -8 -3 -5 2 -18 12 -28 9
-11 18 -26 20 -33 3 -15 51 -82 67 -93 5 -4 7 -8 2 -8 -10 0 44 -80 54 -80 5
0 8 -3 7 -7 -3 -12 28 -66 49 -85 32 -29 40 -43 38 -66 -1 -15 2 -19 10 -12 8
7 17 -2 29 -30 10 -24 22 -37 28 -34 7 4 8 2 4 -5 -4 -6 0 -14 8 -17 9 -3 14
-10 11 -14 -3 -4 6 -19 20 -31 13 -13 25 -30 25 -37 0 -7 11 -24 25 -37 13
-14 21 -25 18 -25 -3 0 1 -7 8 -17 8 -9 14 -28 14 -42 0 -15 5 -25 12 -24 20
4 65 -47 100 -114 9 -18 21 -29 26 -26 6 3 7 2 4 -4 -4 -5 1 -19 11 -29 9 -10
28 -36 42 -56 14 -21 29 -38 33 -38 5 0 6 -4 3 -8 -9 -14 25 -54 41 -48 8 3
11 1 8 -4 -8 -13 4 -52 14 -46 4 3 13 -4 20 -16 10 -16 10 -19 -1 -12 -10 6
-11 5 -1 -8 7 -8 9 -18 5 -22 -4 -4 -2 -7 3 -6 20 4 36 0 31 -9 -3 -5 1 -12
10 -15 8 -3 13 -10 10 -15 -4 -5 -3 -11 2 -13 15 -6 53 -78 47 -88 -4 -6 -3
-9 2 -8 4 1 19 -4 33 -12 27 -14 92 -21 84 -8 -3 4 0 8 5 8 6 0 11 -4 11 -9 0
-11 41 -8 60 4 9 6 11 4 5 -5 -6 -10 -4 -11 11 -5 28 12 83 14 90 4 3 -5 11
-6 17 -2 7 4 18 8 26 8 20 0 39 33 25 43 -6 4 -10 15 -8 25 1 9 -1 17 -6 17
-4 0 -6 9 -3 20 3 11 0 20 -6 20 -5 0 -8 7 -5 15 4 8 1 15 -6 15 -6 0 -9 4 -6
9 8 13 -5 72 -14 66 -5 -3 -6 5 -2 17 4 18 2 20 -14 14 -15 -6 -17 -5 -6 5 17
18 15 42 -3 35 -12 -4 -13 -2 -2 16 9 16 9 22 0 25 -9 3 -9 12 -2 29 12 32 11
43 -1 24 -8 -12 -10 -10 -10 9 0 16 -4 21 -15 17 -12 -4 -13 -2 -2 16 9 15 9
22 0 25 -8 3 -9 13 -3 34 8 26 7 29 -5 19 -11 -9 -12 -7 -8 11 5 18 3 21 -10
16 -14 -5 -15 -3 -6 11 13 21 -5 77 -22 67 -6 -4 -5 3 3 15 10 18 10 24 0 27
-6 3 -10 9 -7 14 7 10 -14 88 -27 106 -5 7 -5 14 2 18 7 4 7 11 2 18 -5 7 -15
38 -22 70 -7 31 -17 57 -22 57 -4 0 -7 3 -6 8 5 16 -13 112 -21 112 -4 0 -8
13 -8 30 0 18 4 27 11 23 6 -4 2 4 -9 16 -11 13 -19 25 -17 27 6 11 1 44 -7
40 -5 -4 -7 4 -3 16 4 17 2 20 -13 14 -15 -5 -16 -4 -5 9 7 9 9 22 5 32 -5 10
-7 26 -6 36 1 9 -3 17 -9 17 -7 0 -8 6 0 19 7 14 7 22 -2 27 -7 5 -8 3 -3 -6
5 -8 4 -11 -3 -7 -5 4 -8 16 -5 27 3 11 0 20 -6 20 -9 0 -9 5 -1 20 8 16 8 20
-4 20 -10 0 -12 7 -8 22 4 18 2 20 -14 14 -15 -6 -17 -5 -6 5 19 20 15 42 -5
34 -15 -5 -16 -4 -5 6 13 14 17 49 5 49 -5 0 -9 15 -10 34 -4 50 -21 88 -35
81 -7 -4 -5 0 5 8 15 13 15 16 2 27 -11 9 -12 17 -4 31 5 11 6 19 0 19 -5 0
-15 29 -22 65 -7 36 -17 61 -22 58 -6 -3 -7 -1 -4 4 4 6 4 25 1 43 -5 22 -11
29 -22 25 -12 -4 -13 -3 -2 10 7 9 9 22 4 32 -4 10 -8 23 -9 28 0 6 -7 9 -15
7 -12 -3 -13 -1 -2 9 17 18 15 42 -3 36 -11 -5 -12 -1 -5 17 5 13 6 27 2 31
-3 3 0 10 7 14 11 7 9 10 -7 15 -14 5 -18 12 -14 28 4 17 2 20 -11 15 -14 -5
-15 -3 -5 12 8 14 7 25 -5 50 -9 18 -11 31 -5 31 7 0 7 4 0 13 -6 6 -11 14
-11 17 -6 48 -18 73 -47 95 -32 24 -94 35 -94 16z m-46 -1820 c3 -5 -1 -11 -9
-15 -9 -3 -15 0 -15 9 0 16 16 20 24 6z"/>
<path d="M6080 7062 c0 -4 -10 -12 -22 -17 -22 -10 -36 -45 -40 -102 -1 -18
-6 -33 -11 -33 -5 0 -7 -9 -4 -20 3 -11 1 -20 -5 -20 -6 0 -8 -9 -5 -20 3 -10
0 -21 -7 -23 -8 -3 -8 -10 1 -25 11 -18 10 -20 -3 -15 -13 5 -15 2 -10 -15 4
-11 2 -23 -4 -27 -6 -4 -9 -13 -6 -21 3 -8 0 -17 -7 -20 -8 -3 -12 -18 -11
-37 1 -17 -2 -37 -8 -44 -5 -7 -6 -18 -2 -24 4 -8 3 -9 -4 -5 -11 7 -13 1 -16
-71 -1 -10 -5 -21 -10 -24 -4 -4 -2 -17 5 -30 12 -23 11 -23 -6 -9 -17 14 -18
13 -13 -12 3 -16 2 -28 -3 -28 -4 0 -11 -25 -14 -55 -4 -30 -10 -55 -14 -55
-12 0 -11 -53 1 -67 9 -11 9 -13 -1 -11 -15 3 -43 -78 -37 -104 2 -10 0 -21
-6 -24 -5 -3 -8 -15 -5 -25 3 -10 1 -22 -5 -25 -5 -3 -7 -12 -4 -20 3 -7 1
-16 -4 -19 -5 -3 -7 -14 -5 -25 2 -12 0 -18 -4 -15 -9 5 -17 -31 -26 -119 -2
-27 -10 -55 -16 -62 -6 -8 -9 -20 -6 -28 3 -8 1 -16 -4 -18 -11 -4 -22 -57
-22 -105 0 -18 -4 -30 -8 -27 -11 6 -23 -62 -13 -77 4 -7 3 -10 -3 -6 -15 9
-24 -74 -11 -90 8 -11 7 -12 -7 -7 -15 6 -17 3 -13 -14 4 -12 2 -22 -4 -22 -6
0 -8 -9 -5 -20 3 -11 1 -20 -5 -20 -5 0 -8 -8 -6 -17 1 -10 -1 -23 -4 -29 -8
-12 -19 -60 -21 -86 -1 -10 -5 -18 -10 -18 -5 0 -7 -11 -5 -25 3 -13 2 -22 -3
-20 -6 4 -19 -47 -24 -95 0 -9 -4 -21 -9 -28 -4 -6 -4 -18 0 -24 6 -10 5 -10
-7 -1 -13 10 -15 5 -14 -38 1 -31 -3 -48 -10 -46 -6 3 -9 -10 -9 -32 1 -20 -3
-41 -8 -48 -5 -7 -7 -17 -3 -23 3 -5 1 -10 -6 -10 -6 0 -9 -8 -6 -20 3 -11 1
-20 -3 -20 -7 0 -20 -48 -26 -95 0 -5 -4 -18 -8 -27 -10 -22 0 -38 25 -38 10
0 19 -3 19 -8 0 -4 47 -8 105 -9 58 -1 105 2 105 7 0 8 26 2 52 -11 4 -2 14 5
22 16 9 11 16 16 16 11 0 -11 40 39 40 50 0 4 9 17 19 28 11 12 21 27 23 35 2
7 13 25 25 39 13 13 20 30 16 36 -4 6 0 6 9 -2 13 -10 15 -9 12 14 -1 14 0 23
3 20 7 -7 43 38 43 54 0 6 11 23 24 37 14 15 23 30 20 35 -3 4 3 8 12 8 10 0
14 3 11 7 -4 3 0 15 10 25 9 10 13 18 10 18 -3 0 5 12 19 26 16 15 24 32 21
44 -3 11 0 17 7 14 13 -5 57 49 61 74 1 10 11 17 24 16 17 -1 19 1 9 13 -9 11
-9 16 0 21 15 10 63 82 54 82 -4 0 1 5 11 11 9 6 15 14 12 19 -3 4 2 11 11 14
8 3 13 10 10 15 -3 5 1 12 10 15 9 4 14 9 11 12 -2 3 6 17 19 31 13 14 22 28
19 31 -3 3 4 12 15 19 11 8 18 18 16 22 -3 4 5 14 18 21 13 7 23 19 22 28 -2
9 8 26 20 37 13 12 21 25 17 28 -3 4 5 16 18 28 13 11 17 17 9 13 -13 -7 -13
-5 -1 9 7 9 18 14 24 10 6 -3 7 -1 3 5 -4 7 -4 12 1 12 8 0 30 43 34 65 1 6 9
15 18 22 9 7 12 13 8 13 -4 0 -3 6 3 13 37 43 50 61 50 67 0 3 8 15 18 26 28
33 71 121 64 130 -4 5 -6 8 -3 7 2 -1 10 5 18 13 14 14 28 53 40 117 11 54 12
216 2 223 -5 3 -7 10 -3 15 3 5 0 16 -6 24 -6 8 -9 19 -5 25 4 6 2 26 -5 43
-23 62 -45 107 -52 107 -5 0 -8 7 -8 15 0 8 -4 15 -10 15 -5 0 -6 8 -3 18 6
14 4 15 -8 5 -12 -10 -14 -6 -13 22 1 23 -2 32 -10 29 -7 -3 -21 5 -32 17 -12
14 -13 19 -4 14 8 -4 4 4 -10 19 -13 14 -30 24 -36 22 -7 -3 -18 2 -26 11 -7
9 -11 17 -9 17 2 1 1 11 -3 24 -4 12 -12 20 -17 17 -5 -4 -9 -2 -9 4 0 5 -18
20 -40 32 -22 13 -40 29 -40 36 0 7 -11 15 -25 19 -14 3 -25 11 -25 16 0 6 -7
5 -15 -2 -13 -11 -14 -10 -9 6 4 10 4 16 -1 12 -4 -4 -14 0 -22 10 -10 11 -12
12 -8 2 4 -8 -3 -4 -14 9 -12 13 -21 21 -21 18 0 -3 -21 3 -46 14 -36 16 -48
18 -60 8 -12 -10 -13 -9 -8 6 6 14 3 16 -16 10 -15 -5 -20 -4 -16 4 5 7 -8 11
-38 11 -25 0 -46 -3 -46 -8z"/>
<path d="M6574 6815 c3 -21 16 -31 16 -12 0 9 -4 18 -9 21 -5 4 -8 -1 -7 -9z"/>
<path d="M3680 5689 c0 -5 5 -7 10 -4 6 3 10 8 10 11 0 2 -4 4 -10 4 -5 0 -10
-5 -10 -11z"/>
<path d="M4176 4977 c3 -10 9 -15 12 -12 3 3 0 11 -7 18 -10 9 -11 8 -5 -6z"/>
<path d="M4385 4390 c3 -5 -3 -10 -14 -10 -20 0 -20 -6 -23 -259 -2 -151 1
-257 6 -254 5 4 6 -6 2 -21 -3 -14 -2 -26 3 -26 5 0 7 -9 4 -20 -3 -11 0 -20
6 -20 6 0 11 -5 11 -11 0 -5 -4 -7 -10 -4 -6 3 -7 -1 -4 -9 3 -9 10 -16 15
-16 4 0 6 -7 3 -15 -4 -8 -1 -15 6 -15 6 0 8 -4 5 -10 -9 -14 26 -70 39 -63 7
4 6 1 0 -6 -9 -10 -8 -20 3 -42 8 -16 19 -29 24 -29 6 0 8 -4 5 -9 -3 -4 3
-16 14 -26 11 -10 20 -24 20 -32 0 -8 5 -11 10 -8 6 3 10 0 10 -7 0 -17 50
-59 63 -51 6 4 7 1 2 -6 -8 -14 33 -63 46 -55 10 6 31 -31 22 -39 -3 -4 4 -5
15 -2 12 2 23 -3 26 -12 4 -9 9 -13 12 -10 4 3 15 -3 27 -13 11 -11 24 -17 29
-14 4 3 8 1 8 -4 0 -6 14 -15 30 -21 17 -5 30 -7 30 -4 0 3 6 0 14 -6 8 -7 24
-14 37 -16 12 -3 25 -9 29 -15 3 -5 27 -11 53 -12 26 -2 47 -6 47 -9 0 -3 56
-5 125 -5 69 0 125 4 125 8 0 4 6 5 13 2 8 -3 34 2 58 11 24 9 50 17 57 17 7
1 10 8 7 16 -4 12 -3 12 9 3 9 -8 16 -8 20 -2 4 6 12 8 19 5 7 -2 23 5 35 16
12 11 22 18 22 15 0 -3 10 1 22 9 12 9 30 16 40 16 12 0 15 5 11 15 -3 9 -2
15 3 14 22 -4 32 3 37 22 4 16 11 20 26 16 12 -3 18 -1 15 4 -3 5 13 26 35 46
23 20 41 42 41 50 0 7 7 16 15 19 8 4 13 10 10 14 -3 5 3 13 12 19 10 6 14 11
10 11 -4 0 1 10 12 21 11 12 23 35 27 52 5 23 8 26 16 16 7 -10 8 -8 5 9 -3
12 -1 22 4 22 4 0 6 7 3 15 -4 8 -1 15 6 15 7 0 10 7 6 16 -3 8 -2 12 4 9 6
-3 11 2 12 12 0 10 3 32 5 48 3 17 5 53 6 80 1 28 6 56 10 63 5 6 4 12 -1 12
-8 0 -8 66 -1 106 1 5 0 11 -1 14 -8 18 -6 127 2 138 7 8 7 12 0 12 -6 0 -10
26 -10 65 0 36 4 62 9 59 5 -3 9 -1 9 5 0 5 -4 13 -10 16 -5 3 -10 11 -10 16
0 6 5 7 10 4 6 -3 10 1 10 9 0 9 -3 15 -7 15 -20 -3 -34 2 -28 11 3 6 -1 10
-9 10 -8 0 -17 -4 -21 -9 -7 -13 -224 -11 -249 1 -13 7 -16 7 -12 -1 5 -7 -4
-11 -23 -11 -16 0 -33 5 -36 10 -4 7 -11 7 -18 2 -13 -10 -108 -9 -125 2 -6 3
-13 3 -16 -2 -5 -9 -290 -7 -305 2 -6 4 -11 3 -11 -1 0 -10 -170 -10 -187 0
-6 4 -14 4 -17 -1 -5 -8 -130 -6 -155 3 -7 3 -21 0 -29 -7 -13 -11 -14 -11 -7
2 7 12 6 13 -6 3 -12 -10 -18 -10 -27 -1 -9 9 -12 9 -12 0 0 -8 -30 -11 -100
-10 -55 1 -94 5 -87 10 8 5 4 8 -11 8 -13 0 -20 -4 -17 -10z"/>
<path d="M5798 4393 c6 -2 18 -2 25 0 6 3 1 5 -13 5 -14 0 -19 -2 -12 -5z"/>
</g>
</svg>
